<mxfile host="app.diagrams.net" modified="2022-03-04T11:13:56.183Z" agent="5.0 (Windows NT 10.0; Win64; x64) AppleWebKit/537.36 (KHTML, like Gecko) Chrome/98.0.4758.102 Safari/537.36" etag="olqXNZ8Os0To4rNM2oUg" version="16.6.5" type="github" pages="5">
  <diagram id="i09vuHjo_J9IYXawHqGr" name="Page-1">
    <mxGraphModel dx="1182" dy="707" grid="1" gridSize="10" guides="1" tooltips="1" connect="1" arrows="1" fold="1" page="1" pageScale="1" pageWidth="827" pageHeight="1169" math="0" shadow="0">
      <root>
        <mxCell id="0" />
        <mxCell id="1" parent="0" />
        <mxCell id="gCuWJ5Lccc7KJokp8anK-1" value="Spotify web" style="rounded=0;whiteSpace=wrap;html=1;" vertex="1" parent="1">
          <mxGeometry x="340" y="320" width="130" height="70" as="geometry" />
        </mxCell>
        <mxCell id="gCuWJ5Lccc7KJokp8anK-2" value="JAVA&lt;br&gt;Maven" style="rounded=0;whiteSpace=wrap;html=1;" vertex="1" parent="1">
          <mxGeometry x="130" y="200" width="120" height="60" as="geometry" />
        </mxCell>
        <mxCell id="gCuWJ5Lccc7KJokp8anK-3" value="" style="endArrow=classic;html=1;rounded=0;entryX=1;entryY=1;entryDx=0;entryDy=0;exitX=0;exitY=0;exitDx=0;exitDy=0;" edge="1" parent="1" source="gCuWJ5Lccc7KJokp8anK-1" target="gCuWJ5Lccc7KJokp8anK-2">
          <mxGeometry width="50" height="50" relative="1" as="geometry">
            <mxPoint x="270" y="260" as="sourcePoint" />
            <mxPoint x="440" y="330" as="targetPoint" />
            <Array as="points" />
          </mxGeometry>
        </mxCell>
        <mxCell id="gCuWJ5Lccc7KJokp8anK-4" value="developed" style="text;html=1;align=center;verticalAlign=middle;resizable=0;points=[];autosize=1;strokeColor=none;fillColor=none;" vertex="1" parent="1">
          <mxGeometry x="245" y="290" width="70" height="20" as="geometry" />
        </mxCell>
        <mxCell id="gCuWJ5Lccc7KJokp8anK-5" value="Junit&lt;br&gt;Json" style="rounded=0;whiteSpace=wrap;html=1;" vertex="1" parent="1">
          <mxGeometry x="125" y="420" width="120" height="60" as="geometry" />
        </mxCell>
        <mxCell id="gCuWJ5Lccc7KJokp8anK-6" value="Developers&lt;br&gt;Managers" style="rounded=0;whiteSpace=wrap;html=1;" vertex="1" parent="1">
          <mxGeometry x="345" y="140" width="120" height="60" as="geometry" />
        </mxCell>
        <mxCell id="gCuWJ5Lccc7KJokp8anK-7" value="" style="endArrow=classic;html=1;rounded=0;exitX=0.5;exitY=0;exitDx=0;exitDy=0;entryX=0.5;entryY=1;entryDx=0;entryDy=0;" edge="1" parent="1" source="gCuWJ5Lccc7KJokp8anK-1" target="gCuWJ5Lccc7KJokp8anK-6">
          <mxGeometry width="50" height="50" relative="1" as="geometry">
            <mxPoint x="390" y="370" as="sourcePoint" />
            <mxPoint x="440" y="320" as="targetPoint" />
          </mxGeometry>
        </mxCell>
        <mxCell id="gCuWJ5Lccc7KJokp8anK-8" value="used" style="text;html=1;align=center;verticalAlign=middle;resizable=0;points=[];autosize=1;strokeColor=none;fillColor=none;" vertex="1" parent="1">
          <mxGeometry x="390" y="250" width="40" height="20" as="geometry" />
        </mxCell>
        <mxCell id="gCuWJ5Lccc7KJokp8anK-9" value="Github" style="rounded=0;whiteSpace=wrap;html=1;" vertex="1" parent="1">
          <mxGeometry x="550" y="200" width="120" height="60" as="geometry" />
        </mxCell>
        <mxCell id="gCuWJ5Lccc7KJokp8anK-10" value="" style="endArrow=classic;html=1;rounded=0;exitX=1;exitY=0;exitDx=0;exitDy=0;entryX=0;entryY=1;entryDx=0;entryDy=0;" edge="1" parent="1" source="gCuWJ5Lccc7KJokp8anK-1" target="gCuWJ5Lccc7KJokp8anK-9">
          <mxGeometry width="50" height="50" relative="1" as="geometry">
            <mxPoint x="390" y="370" as="sourcePoint" />
            <mxPoint x="440" y="320" as="targetPoint" />
          </mxGeometry>
        </mxCell>
        <mxCell id="gCuWJ5Lccc7KJokp8anK-11" value="managed&lt;br&gt;with" style="text;html=1;align=center;verticalAlign=middle;resizable=0;points=[];autosize=1;strokeColor=none;fillColor=none;" vertex="1" parent="1">
          <mxGeometry x="485" y="275" width="70" height="30" as="geometry" />
        </mxCell>
        <mxCell id="gCuWJ5Lccc7KJokp8anK-12" value="" style="rounded=0;whiteSpace=wrap;html=1;" vertex="1" parent="1">
          <mxGeometry x="580" y="320" width="120" height="60" as="geometry" />
        </mxCell>
        <mxCell id="gCuWJ5Lccc7KJokp8anK-13" value="" style="endArrow=classic;html=1;rounded=0;exitX=1;exitY=0.5;exitDx=0;exitDy=0;entryX=0;entryY=0.5;entryDx=0;entryDy=0;" edge="1" parent="1" source="gCuWJ5Lccc7KJokp8anK-1" target="gCuWJ5Lccc7KJokp8anK-12">
          <mxGeometry width="50" height="50" relative="1" as="geometry">
            <mxPoint x="390" y="370" as="sourcePoint" />
            <mxPoint x="440" y="320" as="targetPoint" />
          </mxGeometry>
        </mxCell>
        <mxCell id="gCuWJ5Lccc7KJokp8anK-14" value="Competes&lt;br&gt;with" style="text;html=1;align=center;verticalAlign=middle;resizable=0;points=[];autosize=1;strokeColor=none;fillColor=none;" vertex="1" parent="1">
          <mxGeometry x="485" y="335" width="70" height="30" as="geometry" />
        </mxCell>
        <mxCell id="gCuWJ5Lccc7KJokp8anK-15" value="" style="endArrow=classic;html=1;rounded=0;exitX=0;exitY=1;exitDx=0;exitDy=0;entryX=1;entryY=0.5;entryDx=0;entryDy=0;" edge="1" parent="1" source="gCuWJ5Lccc7KJokp8anK-1" target="gCuWJ5Lccc7KJokp8anK-5">
          <mxGeometry width="50" height="50" relative="1" as="geometry">
            <mxPoint x="390" y="360" as="sourcePoint" />
            <mxPoint x="440" y="310" as="targetPoint" />
          </mxGeometry>
        </mxCell>
        <mxCell id="gCuWJ5Lccc7KJokp8anK-16" value="depends&lt;br&gt;on" style="text;html=1;align=center;verticalAlign=middle;resizable=0;points=[];autosize=1;strokeColor=none;fillColor=none;" vertex="1" parent="1">
          <mxGeometry x="260" y="385" width="60" height="30" as="geometry" />
        </mxCell>
        <mxCell id="gCuWJ5Lccc7KJokp8anK-17" value="dargmuesli" style="rounded=0;whiteSpace=wrap;html=1;" vertex="1" parent="1">
          <mxGeometry x="345" y="490" width="120" height="60" as="geometry" />
        </mxCell>
        <mxCell id="gCuWJ5Lccc7KJokp8anK-18" value="codecov" style="rounded=0;whiteSpace=wrap;html=1;" vertex="1" parent="1">
          <mxGeometry x="550" y="460" width="120" height="60" as="geometry" />
        </mxCell>
        <mxCell id="gCuWJ5Lccc7KJokp8anK-19" value="" style="endArrow=classic;html=1;rounded=0;exitX=1;exitY=1;exitDx=0;exitDy=0;entryX=0;entryY=0;entryDx=0;entryDy=0;" edge="1" parent="1" source="gCuWJ5Lccc7KJokp8anK-1" target="gCuWJ5Lccc7KJokp8anK-18">
          <mxGeometry width="50" height="50" relative="1" as="geometry">
            <mxPoint x="390" y="350" as="sourcePoint" />
            <mxPoint x="440" y="300" as="targetPoint" />
          </mxGeometry>
        </mxCell>
        <mxCell id="gCuWJ5Lccc7KJokp8anK-20" value="uses" style="text;html=1;align=center;verticalAlign=middle;resizable=0;points=[];autosize=1;strokeColor=none;fillColor=none;" vertex="1" parent="1">
          <mxGeometry x="500" y="400" width="40" height="20" as="geometry" />
        </mxCell>
        <mxCell id="gCuWJ5Lccc7KJokp8anK-21" value="" style="endArrow=classic;html=1;rounded=0;exitX=0.5;exitY=1;exitDx=0;exitDy=0;entryX=0.5;entryY=0;entryDx=0;entryDy=0;" edge="1" parent="1" source="gCuWJ5Lccc7KJokp8anK-1" target="gCuWJ5Lccc7KJokp8anK-17">
          <mxGeometry width="50" height="50" relative="1" as="geometry">
            <mxPoint x="390" y="350" as="sourcePoint" />
            <mxPoint x="440" y="300" as="targetPoint" />
          </mxGeometry>
        </mxCell>
        <mxCell id="gCuWJ5Lccc7KJokp8anK-22" value="contribute to" style="text;html=1;align=center;verticalAlign=middle;resizable=0;points=[];autosize=1;strokeColor=none;fillColor=none;" vertex="1" parent="1">
          <mxGeometry x="370" y="430" width="80" height="20" as="geometry" />
        </mxCell>
        <mxCell id="6TCSS9PJFDNo-I1FZpse-1" value="" style="endArrow=classic;html=1;rounded=0;exitX=0.923;exitY=1.014;exitDx=0;exitDy=0;exitPerimeter=0;" edge="1" parent="1" source="gCuWJ5Lccc7KJokp8anK-1">
          <mxGeometry width="50" height="50" relative="1" as="geometry">
            <mxPoint x="390" y="350" as="sourcePoint" />
            <mxPoint x="540" y="590" as="targetPoint" />
          </mxGeometry>
        </mxCell>
        <mxCell id="6TCSS9PJFDNo-I1FZpse-3" value="calls to" style="edgeLabel;html=1;align=center;verticalAlign=middle;resizable=0;points=[];" vertex="1" connectable="0" parent="6TCSS9PJFDNo-I1FZpse-1">
          <mxGeometry x="-0.1843" relative="1" as="geometry">
            <mxPoint x="1" as="offset" />
          </mxGeometry>
        </mxCell>
        <mxCell id="6TCSS9PJFDNo-I1FZpse-2" value="spotify" style="text;html=1;align=center;verticalAlign=middle;resizable=0;points=[];autosize=1;strokeColor=none;fillColor=none;" vertex="1" parent="1">
          <mxGeometry x="535" y="590" width="50" height="20" as="geometry" />
        </mxCell>
      </root>
    </mxGraphModel>
  </diagram>
  <diagram id="WcNQzQB_WlLp4lsHpLS6" name="Page-2">
    <mxGraphModel dx="1182" dy="707" grid="1" gridSize="10" guides="1" tooltips="1" connect="1" arrows="1" fold="1" page="1" pageScale="1" pageWidth="827" pageHeight="1169" math="0" shadow="0">
      <root>
        <mxCell id="BBfMfez5tS2_OF1u2IiI-0" />
        <mxCell id="BBfMfez5tS2_OF1u2IiI-1" parent="BBfMfez5tS2_OF1u2IiI-0" />
        <mxCell id="8WYR9thUh1YIFJCKNFi_-0" value="User" style="shape=umlActor;verticalLabelPosition=bottom;verticalAlign=top;html=1;outlineConnect=0;" vertex="1" parent="BBfMfez5tS2_OF1u2IiI-1">
          <mxGeometry x="170" y="320" width="30" height="60" as="geometry" />
        </mxCell>
        <mxCell id="8WYR9thUh1YIFJCKNFi_-3" value="Albums" style="ellipse;whiteSpace=wrap;html=1;" vertex="1" parent="BBfMfez5tS2_OF1u2IiI-1">
          <mxGeometry x="280" y="120" width="120" height="40" as="geometry" />
        </mxCell>
        <mxCell id="8WYR9thUh1YIFJCKNFi_-5" value="" style="endArrow=none;html=1;rounded=0;exitX=1;exitY=0.3333333333333333;exitDx=0;exitDy=0;exitPerimeter=0;" edge="1" parent="BBfMfez5tS2_OF1u2IiI-1" source="8WYR9thUh1YIFJCKNFi_-0" target="8WYR9thUh1YIFJCKNFi_-3">
          <mxGeometry width="50" height="50" relative="1" as="geometry">
            <mxPoint x="380" y="390" as="sourcePoint" />
            <mxPoint x="430" y="340" as="targetPoint" />
          </mxGeometry>
        </mxCell>
        <mxCell id="8WYR9thUh1YIFJCKNFi_-7" value="Follow" style="ellipse;whiteSpace=wrap;html=1;" vertex="1" parent="BBfMfez5tS2_OF1u2IiI-1">
          <mxGeometry x="330" y="320" width="120" height="40" as="geometry" />
        </mxCell>
        <mxCell id="8WYR9thUh1YIFJCKNFi_-10" value="Episodes" style="ellipse;whiteSpace=wrap;html=1;" vertex="1" parent="BBfMfez5tS2_OF1u2IiI-1">
          <mxGeometry x="320" y="260" width="120" height="40" as="geometry" />
        </mxCell>
        <mxCell id="8WYR9thUh1YIFJCKNFi_-11" value="Artists" style="ellipse;whiteSpace=wrap;html=1;" vertex="1" parent="BBfMfez5tS2_OF1u2IiI-1">
          <mxGeometry x="310" y="190" width="120" height="40" as="geometry" />
        </mxCell>
        <mxCell id="8WYR9thUh1YIFJCKNFi_-12" value="Playlists" style="ellipse;whiteSpace=wrap;html=1;" vertex="1" parent="BBfMfez5tS2_OF1u2IiI-1">
          <mxGeometry x="320" y="440" width="120" height="40" as="geometry" />
        </mxCell>
        <mxCell id="8WYR9thUh1YIFJCKNFi_-13" value="Personalization" style="ellipse;whiteSpace=wrap;html=1;" vertex="1" parent="BBfMfez5tS2_OF1u2IiI-1">
          <mxGeometry x="330" y="380" width="120" height="40" as="geometry" />
        </mxCell>
        <mxCell id="8WYR9thUh1YIFJCKNFi_-14" value="Search" style="ellipse;whiteSpace=wrap;html=1;" vertex="1" parent="BBfMfez5tS2_OF1u2IiI-1">
          <mxGeometry x="300" y="500" width="120" height="40" as="geometry" />
        </mxCell>
        <mxCell id="8WYR9thUh1YIFJCKNFi_-17" value="" style="endArrow=none;html=1;rounded=0;entryX=0;entryY=1;entryDx=0;entryDy=0;" edge="1" parent="BBfMfez5tS2_OF1u2IiI-1" target="8WYR9thUh1YIFJCKNFi_-11">
          <mxGeometry width="50" height="50" relative="1" as="geometry">
            <mxPoint x="200" y="340" as="sourcePoint" />
            <mxPoint x="430" y="430" as="targetPoint" />
          </mxGeometry>
        </mxCell>
        <mxCell id="8WYR9thUh1YIFJCKNFi_-18" value="" style="endArrow=none;html=1;rounded=0;entryX=0;entryY=1;entryDx=0;entryDy=0;" edge="1" parent="BBfMfez5tS2_OF1u2IiI-1" target="8WYR9thUh1YIFJCKNFi_-10">
          <mxGeometry width="50" height="50" relative="1" as="geometry">
            <mxPoint x="200" y="340" as="sourcePoint" />
            <mxPoint x="430" y="430" as="targetPoint" />
          </mxGeometry>
        </mxCell>
        <mxCell id="8WYR9thUh1YIFJCKNFi_-19" value="" style="endArrow=none;html=1;rounded=0;entryX=0;entryY=0.5;entryDx=0;entryDy=0;" edge="1" parent="BBfMfez5tS2_OF1u2IiI-1" target="8WYR9thUh1YIFJCKNFi_-7">
          <mxGeometry width="50" height="50" relative="1" as="geometry">
            <mxPoint x="200" y="340" as="sourcePoint" />
            <mxPoint x="430" y="430" as="targetPoint" />
          </mxGeometry>
        </mxCell>
        <mxCell id="8WYR9thUh1YIFJCKNFi_-20" value="" style="endArrow=none;html=1;rounded=0;entryX=0;entryY=0;entryDx=0;entryDy=0;" edge="1" parent="BBfMfez5tS2_OF1u2IiI-1" target="8WYR9thUh1YIFJCKNFi_-13">
          <mxGeometry width="50" height="50" relative="1" as="geometry">
            <mxPoint x="200" y="340" as="sourcePoint" />
            <mxPoint x="430" y="430" as="targetPoint" />
          </mxGeometry>
        </mxCell>
        <mxCell id="8WYR9thUh1YIFJCKNFi_-21" value="" style="endArrow=none;html=1;rounded=0;exitX=1;exitY=0.3333333333333333;exitDx=0;exitDy=0;exitPerimeter=0;entryX=0;entryY=0;entryDx=0;entryDy=0;" edge="1" parent="BBfMfez5tS2_OF1u2IiI-1" source="8WYR9thUh1YIFJCKNFi_-0" target="8WYR9thUh1YIFJCKNFi_-12">
          <mxGeometry width="50" height="50" relative="1" as="geometry">
            <mxPoint x="380" y="480" as="sourcePoint" />
            <mxPoint x="430" y="430" as="targetPoint" />
          </mxGeometry>
        </mxCell>
        <mxCell id="8WYR9thUh1YIFJCKNFi_-22" value="" style="endArrow=none;html=1;rounded=0;entryX=0;entryY=0;entryDx=0;entryDy=0;" edge="1" parent="BBfMfez5tS2_OF1u2IiI-1" target="8WYR9thUh1YIFJCKNFi_-14">
          <mxGeometry width="50" height="50" relative="1" as="geometry">
            <mxPoint x="200" y="340" as="sourcePoint" />
            <mxPoint x="430" y="430" as="targetPoint" />
          </mxGeometry>
        </mxCell>
        <mxCell id="8WYR9thUh1YIFJCKNFi_-23" value="Shows" style="ellipse;whiteSpace=wrap;html=1;" vertex="1" parent="BBfMfez5tS2_OF1u2IiI-1">
          <mxGeometry x="280" y="564.5" width="120" height="40" as="geometry" />
        </mxCell>
      </root>
    </mxGraphModel>
  </diagram>
  <diagram id="LqY5YqS1tLsE-u66fi1u" name="Page-3">
    <mxGraphModel dx="2009" dy="707" grid="1" gridSize="10" guides="1" tooltips="1" connect="1" arrows="1" fold="1" page="1" pageScale="1" pageWidth="827" pageHeight="1169" math="0" shadow="0">
      <root>
        <mxCell id="bd_KzBLHp9iL400J-RGi-0" />
        <mxCell id="bd_KzBLHp9iL400J-RGi-1" parent="bd_KzBLHp9iL400J-RGi-0" />
        <mxCell id="bd_KzBLHp9iL400J-RGi-2" value="&lt;p style=&quot;margin: 0px ; margin-top: 6px ; text-align: center&quot;&gt;&lt;b&gt;Component&lt;/b&gt;&lt;/p&gt;&lt;hr&gt;&lt;p style=&quot;margin: 0px ; margin-left: 8px&quot;&gt;Enumeration&lt;/p&gt;" style="align=left;overflow=fill;html=1;dropTarget=0;" vertex="1" parent="bd_KzBLHp9iL400J-RGi-1">
          <mxGeometry x="310" y="180" width="180" height="60" as="geometry" />
        </mxCell>
        <mxCell id="bd_KzBLHp9iL400J-RGi-3" value="" style="shape=component;jettyWidth=8;jettyHeight=4;" vertex="1" parent="bd_KzBLHp9iL400J-RGi-2">
          <mxGeometry x="1" width="20" height="20" relative="1" as="geometry">
            <mxPoint x="-24" y="4" as="offset" />
          </mxGeometry>
        </mxCell>
        <mxCell id="bd_KzBLHp9iL400J-RGi-4" value="&lt;p style=&quot;margin: 0px ; margin-top: 6px ; text-align: center&quot;&gt;&lt;b&gt;Component&lt;/b&gt;&lt;/p&gt;&lt;hr&gt;&lt;p style=&quot;margin: 0px ; margin-left: 8px&quot;&gt;Exceptions&lt;/p&gt;" style="align=left;overflow=fill;html=1;dropTarget=0;" vertex="1" parent="bd_KzBLHp9iL400J-RGi-1">
          <mxGeometry x="560" y="180" width="180" height="60" as="geometry" />
        </mxCell>
        <mxCell id="bd_KzBLHp9iL400J-RGi-5" value="" style="shape=component;jettyWidth=8;jettyHeight=4;" vertex="1" parent="bd_KzBLHp9iL400J-RGi-4">
          <mxGeometry x="1" width="20" height="20" relative="1" as="geometry">
            <mxPoint x="-24" y="4" as="offset" />
          </mxGeometry>
        </mxCell>
        <mxCell id="bd_KzBLHp9iL400J-RGi-6" value="&lt;p style=&quot;margin: 0px ; margin-top: 6px ; text-align: center&quot;&gt;&lt;b&gt;Component&lt;/b&gt;&lt;/p&gt;&lt;hr&gt;&lt;p style=&quot;margin: 0px ; margin-left: 8px&quot;&gt;Model Objects&lt;/p&gt;" style="align=left;overflow=fill;html=1;dropTarget=0;" vertex="1" parent="bd_KzBLHp9iL400J-RGi-1">
          <mxGeometry x="-10" y="180" width="180" height="60" as="geometry" />
        </mxCell>
        <mxCell id="bd_KzBLHp9iL400J-RGi-7" value="" style="shape=component;jettyWidth=8;jettyHeight=4;" vertex="1" parent="bd_KzBLHp9iL400J-RGi-6">
          <mxGeometry x="1" width="20" height="20" relative="1" as="geometry">
            <mxPoint x="-24" y="4" as="offset" />
          </mxGeometry>
        </mxCell>
        <mxCell id="bd_KzBLHp9iL400J-RGi-13" value="&lt;p style=&quot;margin: 0px ; margin-top: 6px ; text-align: center&quot;&gt;&lt;b&gt;Component&lt;/b&gt;&lt;/p&gt;&lt;hr&gt;&lt;p style=&quot;margin: 0px ; margin-left: 8px&quot;&gt;Request&lt;/p&gt;" style="align=left;overflow=fill;html=1;dropTarget=0;" vertex="1" parent="bd_KzBLHp9iL400J-RGi-1">
          <mxGeometry x="310" y="320" width="180" height="60" as="geometry" />
        </mxCell>
        <mxCell id="bd_KzBLHp9iL400J-RGi-14" value="" style="shape=component;jettyWidth=8;jettyHeight=4;" vertex="1" parent="bd_KzBLHp9iL400J-RGi-13">
          <mxGeometry x="1" width="20" height="20" relative="1" as="geometry">
            <mxPoint x="-24" y="4" as="offset" />
          </mxGeometry>
        </mxCell>
        <mxCell id="bd_KzBLHp9iL400J-RGi-15" value="&lt;p style=&quot;margin: 0px ; margin-top: 6px ; text-align: center&quot;&gt;&lt;b&gt;Component&lt;/b&gt;&lt;/p&gt;&lt;hr&gt;&lt;p style=&quot;margin: 0px ; margin-left: 8px&quot;&gt;Detailed&lt;/p&gt;" style="align=left;overflow=fill;html=1;dropTarget=0;" vertex="1" parent="bd_KzBLHp9iL400J-RGi-1">
          <mxGeometry x="310" y="60" width="180" height="60" as="geometry" />
        </mxCell>
        <mxCell id="bd_KzBLHp9iL400J-RGi-16" value="" style="shape=component;jettyWidth=8;jettyHeight=4;" vertex="1" parent="bd_KzBLHp9iL400J-RGi-15">
          <mxGeometry x="1" width="20" height="20" relative="1" as="geometry">
            <mxPoint x="-24" y="4" as="offset" />
          </mxGeometry>
        </mxCell>
        <mxCell id="bd_KzBLHp9iL400J-RGi-22" value="" style="rounded=0;orthogonalLoop=1;jettySize=auto;html=1;endArrow=none;endFill=0;sketch=0;sourcePerimeterSpacing=0;targetPerimeterSpacing=0;exitX=0.5;exitY=0;exitDx=0;exitDy=0;" edge="1" target="bd_KzBLHp9iL400J-RGi-24" parent="bd_KzBLHp9iL400J-RGi-1" source="bd_KzBLHp9iL400J-RGi-2">
          <mxGeometry relative="1" as="geometry">
            <mxPoint x="380" y="145" as="sourcePoint" />
          </mxGeometry>
        </mxCell>
        <mxCell id="bd_KzBLHp9iL400J-RGi-23" value="" style="rounded=0;orthogonalLoop=1;jettySize=auto;html=1;endArrow=halfCircle;endFill=0;entryX=0.5;entryY=0.5;endSize=6;strokeWidth=1;sketch=0;exitX=0.5;exitY=1;exitDx=0;exitDy=0;" edge="1" target="bd_KzBLHp9iL400J-RGi-24" parent="bd_KzBLHp9iL400J-RGi-1" source="bd_KzBLHp9iL400J-RGi-15">
          <mxGeometry relative="1" as="geometry">
            <mxPoint x="420" y="145" as="sourcePoint" />
          </mxGeometry>
        </mxCell>
        <mxCell id="bd_KzBLHp9iL400J-RGi-24" value="" style="ellipse;whiteSpace=wrap;html=1;align=center;aspect=fixed;resizable=0;points=[];outlineConnect=0;sketch=0;" vertex="1" parent="bd_KzBLHp9iL400J-RGi-1">
          <mxGeometry x="395" y="140" width="10" height="10" as="geometry" />
        </mxCell>
        <mxCell id="bd_KzBLHp9iL400J-RGi-25" value="&lt;p style=&quot;margin: 0px ; margin-top: 6px ; text-align: center&quot;&gt;&lt;b&gt;Component&lt;/b&gt;&lt;/p&gt;&lt;hr&gt;&lt;p style=&quot;margin: 0px ; margin-left: 8px&quot;&gt;Credentials&lt;/p&gt;" style="align=left;overflow=fill;html=1;dropTarget=0;" vertex="1" parent="bd_KzBLHp9iL400J-RGi-1">
          <mxGeometry x="-120" y="60" width="180" height="60" as="geometry" />
        </mxCell>
        <mxCell id="bd_KzBLHp9iL400J-RGi-26" value="" style="shape=component;jettyWidth=8;jettyHeight=4;" vertex="1" parent="bd_KzBLHp9iL400J-RGi-25">
          <mxGeometry x="1" width="20" height="20" relative="1" as="geometry">
            <mxPoint x="-24" y="4" as="offset" />
          </mxGeometry>
        </mxCell>
        <mxCell id="bd_KzBLHp9iL400J-RGi-27" value="&lt;p style=&quot;margin:0px;margin-top:6px;text-align:center;&quot;&gt;&lt;b&gt;Component&lt;/b&gt;&lt;/p&gt;&lt;hr/&gt;&lt;p style=&quot;margin:0px;margin-left:8px;&quot;&gt;+ Attribute1: Type&lt;br/&gt;+ Attribute2: Type&lt;/p&gt;" style="align=left;overflow=fill;html=1;dropTarget=0;" vertex="1" parent="bd_KzBLHp9iL400J-RGi-1">
          <mxGeometry x="100" y="60" width="180" height="60" as="geometry" />
        </mxCell>
        <mxCell id="bd_KzBLHp9iL400J-RGi-28" value="" style="shape=component;jettyWidth=8;jettyHeight=4;" vertex="1" parent="bd_KzBLHp9iL400J-RGi-27">
          <mxGeometry x="1" width="20" height="20" relative="1" as="geometry">
            <mxPoint x="-24" y="4" as="offset" />
          </mxGeometry>
        </mxCell>
        <mxCell id="bd_KzBLHp9iL400J-RGi-31" value="&lt;p style=&quot;margin: 0px ; margin-top: 6px ; text-align: center&quot;&gt;&lt;b&gt;Component&lt;/b&gt;&lt;/p&gt;&lt;p style=&quot;margin: 0px ; margin-left: 8px&quot;&gt;&lt;br&gt;API Man&lt;/p&gt;" style="align=left;overflow=fill;html=1;dropTarget=0;" vertex="1" parent="bd_KzBLHp9iL400J-RGi-1">
          <mxGeometry y="320" width="180" height="60" as="geometry" />
        </mxCell>
        <mxCell id="bd_KzBLHp9iL400J-RGi-32" value="" style="shape=component;jettyWidth=8;jettyHeight=4;" vertex="1" parent="bd_KzBLHp9iL400J-RGi-31">
          <mxGeometry x="1" width="20" height="20" relative="1" as="geometry">
            <mxPoint x="-24" y="4" as="offset" />
          </mxGeometry>
        </mxCell>
      </root>
    </mxGraphModel>
  </diagram>
  <diagram id="BAFjkvOrYx3noGDURRJH" name="Page-4">
    <mxGraphModel dx="1182" dy="707" grid="1" gridSize="10" guides="1" tooltips="1" connect="1" arrows="1" fold="1" page="1" pageScale="1" pageWidth="827" pageHeight="1169" math="0" shadow="0">
      <root>
        <mxCell id="29F2cNyM1pIL3T9SZejv-0" />
        <mxCell id="29F2cNyM1pIL3T9SZejv-1" parent="29F2cNyM1pIL3T9SZejv-0" />
        <mxCell id="29F2cNyM1pIL3T9SZejv-2" value="COMPUTER/SERVER" style="text;html=1;align=center;verticalAlign=middle;resizable=0;points=[];autosize=1;strokeColor=none;fillColor=none;" vertex="1" parent="29F2cNyM1pIL3T9SZejv-1">
          <mxGeometry x="90" y="180" width="140" height="20" as="geometry" />
        </mxCell>
        <mxCell id="29F2cNyM1pIL3T9SZejv-3" value="" style="endArrow=none;html=1;rounded=0;exitX=1.007;exitY=0.45;exitDx=0;exitDy=0;exitPerimeter=0;" edge="1" parent="29F2cNyM1pIL3T9SZejv-1" source="29F2cNyM1pIL3T9SZejv-2">
          <mxGeometry width="50" height="50" relative="1" as="geometry">
            <mxPoint x="390" y="290" as="sourcePoint" />
            <mxPoint x="430" y="100" as="targetPoint" />
          </mxGeometry>
        </mxCell>
        <mxCell id="29F2cNyM1pIL3T9SZejv-4" value="JAVA" style="text;html=1;align=center;verticalAlign=middle;resizable=0;points=[];autosize=1;strokeColor=none;fillColor=none;" vertex="1" parent="29F2cNyM1pIL3T9SZejv-1">
          <mxGeometry x="140" y="200" width="40" height="20" as="geometry" />
        </mxCell>
        <mxCell id="29F2cNyM1pIL3T9SZejv-5" value="Text" style="text;html=1;align=center;verticalAlign=middle;resizable=0;points=[];autosize=1;strokeColor=none;fillColor=none;" vertex="1" parent="29F2cNyM1pIL3T9SZejv-1">
          <mxGeometry x="460" y="80" width="40" height="20" as="geometry" />
        </mxCell>
        <mxCell id="29F2cNyM1pIL3T9SZejv-6" value="Spotify java" style="text;html=1;align=center;verticalAlign=middle;resizable=0;points=[];autosize=1;strokeColor=none;fillColor=none;" vertex="1" parent="29F2cNyM1pIL3T9SZejv-1">
          <mxGeometry x="120" y="220" width="80" height="20" as="geometry" />
        </mxCell>
      </root>
    </mxGraphModel>
  </diagram>
  <diagram id="JejXxvYYwUt8efaj_vBR" name="Page-5">
    <mxGraphModel dx="1182" dy="707" grid="1" gridSize="10" guides="1" tooltips="1" connect="1" arrows="1" fold="1" page="1" pageScale="1" pageWidth="827" pageHeight="1169" math="0" shadow="0">
      <root>
        <mxCell id="pbPiT_1yCUv4oqb2GEbm-0" />
        <mxCell id="pbPiT_1yCUv4oqb2GEbm-1" parent="pbPiT_1yCUv4oqb2GEbm-0" />
      </root>
    </mxGraphModel>
  </diagram>
</mxfile>
